<svg width="25" height="24" viewBox="0 0 25 24" fill="none" xmlns="http://www.w3.org/2000/svg">
<g clip-path="url(#clip0_7500_998)">
<path d="M6.76035 3H19.0148V21H17.216V12.7548H17.1983C16.9995 10.4761 15.1454 8.69032 12.8876 8.69032C10.6297 8.69032 8.77562 10.4761 8.57682 12.7548H8.55917V21H6.76035V3Z" fill="black"/>
<path d="M3.5 5.55484L4.23077 8.10968H4.84911V18.4452C4.53866 18.4452 4.28698 18.7051 4.28698 19.0258V19.7226H4.17456C3.8641 19.7226 3.61243 19.9825 3.61243 20.3032V21H9.90828V20.3032C9.90828 19.9825 9.65661 19.7226 9.34615 19.7226H9.23373V19.0258C9.23373 18.7051 8.98205 18.4452 8.6716 18.4452H7.99704V5.55484H3.5Z" fill="black"/>
<path d="M17.3284 18.4452C17.0179 18.4452 16.7663 18.7051 16.7663 19.0258V19.7226H16.6538C16.3434 19.7226 16.0917 19.9825 16.0917 20.3032V21H22.3876V20.3032C22.3876 19.9825 22.1359 19.7226 21.8254 19.7226H21.713V19.0258C21.713 18.7051 21.4613 18.4452 21.1509 18.4452V8.10968H21.7692L22.5 5.55484H18.003V18.4452H17.3284Z" fill="black"/>
</g>
<defs>
<clipPath id="clip0_7500_998">
<rect width="24" height="24" fill="white" transform="translate(0.5)"/>
</clipPath>
</defs>
</svg>
