<svg width="1440" height="1024" viewBox="0 0 1440 1024" fill="none" xmlns="http://www.w3.org/2000/svg">
<mask id="mask0_1899_725" style="mask-type:alpha" maskUnits="userSpaceOnUse" x="394" y="297" width="652" height="430">
<path d="M394 321C394 307.745 404.745 297 418 297H1022C1035.25 297 1046 307.745 1046 321V703C1046 716.255 1035.25 727 1022 727H418C404.745 727 394 716.255 394 703V321Z" fill="url(#paint0_radial_1899_725)"/>
</mask>
<g mask="url(#mask0_1899_725)">
<circle cx="422" cy="312" r="2" fill="#CDD7E1"/>
<circle cx="454" cy="312" r="2" fill="#CDD7E1"/>
<circle cx="422" cy="344" r="2" fill="#CDD7E1"/>
<circle cx="454" cy="344" r="2" fill="#CDD7E1"/>
<circle cx="422" cy="376" r="2" fill="#CDD7E1"/>
<circle cx="454" cy="376" r="2" fill="#CDD7E1"/>
<circle cx="422" cy="408" r="2" fill="#CDD7E1"/>
<circle cx="454" cy="408" r="2" fill="#CDD7E1"/>
<circle cx="422" cy="440" r="2" fill="#CDD7E1"/>
<circle cx="454" cy="440" r="2" fill="#CDD7E1"/>
<circle cx="422" cy="472" r="2" fill="#CDD7E1"/>
<circle cx="454" cy="472" r="2" fill="#CDD7E1"/>
<circle cx="422" cy="504" r="2" fill="#CDD7E1"/>
<circle cx="454" cy="504" r="2" fill="#CDD7E1"/>
<circle cx="422" cy="536" r="2" fill="#CDD7E1"/>
<circle cx="454" cy="536" r="2" fill="#CDD7E1"/>
<circle cx="422" cy="568" r="2" fill="#CDD7E1"/>
<circle cx="454" cy="568" r="2" fill="#CDD7E1"/>
<circle cx="422" cy="600" r="2" fill="#CDD7E1"/>
<circle cx="454" cy="600" r="2" fill="#CDD7E1"/>
<circle cx="422" cy="632" r="2" fill="#CDD7E1"/>
<circle cx="454" cy="632" r="2" fill="#CDD7E1"/>
<circle cx="422" cy="664" r="2" fill="#CDD7E1"/>
<circle cx="454" cy="664" r="2" fill="#CDD7E1"/>
<circle cx="422" cy="696" r="2" fill="#CDD7E1"/>
<circle cx="454" cy="696" r="2" fill="#CDD7E1"/>
<circle cx="422" cy="728" r="2" fill="#CDD7E1"/>
<circle cx="454" cy="728" r="2" fill="#CDD7E1"/>
<circle cx="486" cy="312" r="2" fill="#CDD7E1"/>
<circle cx="518" cy="312" r="2" fill="#CDD7E1"/>
<circle cx="550" cy="312" r="2" fill="#CDD7E1"/>
<circle cx="582" cy="312" r="2" fill="#CDD7E1"/>
<circle cx="486" cy="344" r="2" fill="#CDD7E1"/>
<circle cx="518" cy="344" r="2" fill="#CDD7E1"/>
<circle cx="550" cy="344" r="2" fill="#CDD7E1"/>
<circle cx="582" cy="344" r="2" fill="#CDD7E1"/>
<circle cx="486" cy="376" r="2" fill="#CDD7E1"/>
<circle cx="518" cy="376" r="2" fill="#CDD7E1"/>
<circle cx="550" cy="376" r="2" fill="#CDD7E1"/>
<circle cx="582" cy="376" r="2" fill="#CDD7E1"/>
<circle cx="486" cy="408" r="2" fill="#CDD7E1"/>
<circle cx="518" cy="408" r="2" fill="#CDD7E1"/>
<circle cx="550" cy="408" r="2" fill="#CDD7E1"/>
<circle cx="582" cy="408" r="2" fill="#CDD7E1"/>
<circle cx="486" cy="440" r="2" fill="#CDD7E1"/>
<circle cx="518" cy="440" r="2" fill="#CDD7E1"/>
<circle cx="550" cy="440" r="2" fill="#CDD7E1"/>
<circle cx="582" cy="440" r="2" fill="#CDD7E1"/>
<circle cx="486" cy="472" r="2" fill="#CDD7E1"/>
<circle cx="518" cy="472" r="2" fill="#CDD7E1"/>
<circle cx="550" cy="472" r="2" fill="#CDD7E1"/>
<circle cx="582" cy="472" r="2" fill="#CDD7E1"/>
<circle cx="486" cy="504" r="2" fill="#CDD7E1"/>
<circle cx="518" cy="504" r="2" fill="#CDD7E1"/>
<circle cx="550" cy="504" r="2" fill="#CDD7E1"/>
<circle cx="582" cy="504" r="2" fill="#CDD7E1"/>
<circle cx="486" cy="536" r="2" fill="#CDD7E1"/>
<circle cx="518" cy="536" r="2" fill="#CDD7E1"/>
<circle cx="550" cy="536" r="2" fill="#CDD7E1"/>
<circle cx="582" cy="536" r="2" fill="#CDD7E1"/>
<circle cx="486" cy="568" r="2" fill="#CDD7E1"/>
<circle cx="518" cy="568" r="2" fill="#CDD7E1"/>
<circle cx="550" cy="568" r="2" fill="#CDD7E1"/>
<circle cx="582" cy="568" r="2" fill="#CDD7E1"/>
<circle cx="486" cy="600" r="2" fill="#CDD7E1"/>
<circle cx="518" cy="600" r="2" fill="#CDD7E1"/>
<circle cx="550" cy="600" r="2" fill="#CDD7E1"/>
<circle cx="582" cy="600" r="2" fill="#CDD7E1"/>
<circle cx="486" cy="632" r="2" fill="#CDD7E1"/>
<circle cx="518" cy="632" r="2" fill="#CDD7E1"/>
<circle cx="550" cy="632" r="2" fill="#CDD7E1"/>
<circle cx="582" cy="632" r="2" fill="#CDD7E1"/>
<circle cx="486" cy="664" r="2" fill="#CDD7E1"/>
<circle cx="518" cy="664" r="2" fill="#CDD7E1"/>
<circle cx="550" cy="664" r="2" fill="#CDD7E1"/>
<circle cx="582" cy="664" r="2" fill="#CDD7E1"/>
<circle cx="486" cy="696" r="2" fill="#CDD7E1"/>
<circle cx="518" cy="696" r="2" fill="#CDD7E1"/>
<circle cx="550" cy="696" r="2" fill="#CDD7E1"/>
<circle cx="582" cy="696" r="2" fill="#CDD7E1"/>
<circle cx="486" cy="728" r="2" fill="#CDD7E1"/>
<circle cx="518" cy="728" r="2" fill="#CDD7E1"/>
<circle cx="550" cy="728" r="2" fill="#CDD7E1"/>
<circle cx="582" cy="728" r="2" fill="#CDD7E1"/>
<circle cx="614" cy="312" r="2" fill="#CDD7E1"/>
<circle cx="646" cy="312" r="2" fill="#CDD7E1"/>
<circle cx="678" cy="312" r="2" fill="#CDD7E1"/>
<circle cx="710" cy="312" r="2" fill="#CDD7E1"/>
<circle cx="614" cy="344" r="2" fill="#CDD7E1"/>
<circle cx="646" cy="344" r="2" fill="#CDD7E1"/>
<circle cx="678" cy="344" r="2" fill="#CDD7E1"/>
<circle cx="710" cy="344" r="2" fill="#CDD7E1"/>
<circle cx="614" cy="376" r="2" fill="#CDD7E1"/>
<circle cx="646" cy="376" r="2" fill="#CDD7E1"/>
<circle cx="678" cy="376" r="2" fill="#CDD7E1"/>
<circle cx="710" cy="376" r="2" fill="#CDD7E1"/>
<circle cx="614" cy="408" r="2" fill="#CDD7E1"/>
<circle cx="646" cy="408" r="2" fill="#CDD7E1"/>
<circle cx="678" cy="408" r="2" fill="#CDD7E1"/>
<circle cx="710" cy="408" r="2" fill="#CDD7E1"/>
<circle cx="614" cy="440" r="2" fill="#CDD7E1"/>
<circle cx="646" cy="440" r="2" fill="#CDD7E1"/>
<circle cx="678" cy="440" r="2" fill="#CDD7E1"/>
<circle cx="710" cy="440" r="2" fill="#CDD7E1"/>
<circle cx="614" cy="472" r="2" fill="#CDD7E1"/>
<circle cx="646" cy="472" r="2" fill="#CDD7E1"/>
<circle cx="678" cy="472" r="2" fill="#CDD7E1"/>
<circle cx="710" cy="472" r="2" fill="#CDD7E1"/>
<circle cx="614" cy="504" r="2" fill="#CDD7E1"/>
<circle cx="646" cy="504" r="2" fill="#CDD7E1"/>
<circle cx="678" cy="504" r="2" fill="#CDD7E1"/>
<circle cx="710" cy="504" r="2" fill="#CDD7E1"/>
<circle cx="614" cy="536" r="2" fill="#CDD7E1"/>
<circle cx="646" cy="536" r="2" fill="#CDD7E1"/>
<circle cx="678" cy="536" r="2" fill="#CDD7E1"/>
<circle cx="710" cy="536" r="2" fill="#CDD7E1"/>
<circle cx="614" cy="568" r="2" fill="#CDD7E1"/>
<circle cx="646" cy="568" r="2" fill="#CDD7E1"/>
<circle cx="678" cy="568" r="2" fill="#CDD7E1"/>
<circle cx="710" cy="568" r="2" fill="#CDD7E1"/>
<circle cx="614" cy="600" r="2" fill="#CDD7E1"/>
<circle cx="646" cy="600" r="2" fill="#CDD7E1"/>
<circle cx="678" cy="600" r="2" fill="#CDD7E1"/>
<circle cx="710" cy="600" r="2" fill="#CDD7E1"/>
<circle cx="614" cy="632" r="2" fill="#CDD7E1"/>
<circle cx="646" cy="632" r="2" fill="#CDD7E1"/>
<circle cx="678" cy="632" r="2" fill="#CDD7E1"/>
<circle cx="710" cy="632" r="2" fill="#CDD7E1"/>
<circle cx="614" cy="664" r="2" fill="#CDD7E1"/>
<circle cx="646" cy="664" r="2" fill="#CDD7E1"/>
<circle cx="678" cy="664" r="2" fill="#CDD7E1"/>
<circle cx="710" cy="664" r="2" fill="#CDD7E1"/>
<circle cx="614" cy="696" r="2" fill="#CDD7E1"/>
<circle cx="646" cy="696" r="2" fill="#CDD7E1"/>
<circle cx="678" cy="696" r="2" fill="#CDD7E1"/>
<circle cx="710" cy="696" r="2" fill="#CDD7E1"/>
<circle cx="614" cy="728" r="2" fill="#CDD7E1"/>
<circle cx="646" cy="728" r="2" fill="#CDD7E1"/>
<circle cx="678" cy="728" r="2" fill="#CDD7E1"/>
<circle cx="710" cy="728" r="2" fill="#CDD7E1"/>
<circle cx="742" cy="312" r="2" fill="#CDD7E1"/>
<circle cx="774" cy="312" r="2" fill="#CDD7E1"/>
<circle cx="806" cy="312" r="2" fill="#CDD7E1"/>
<circle cx="838" cy="312" r="2" fill="#CDD7E1"/>
<circle cx="742" cy="344" r="2" fill="#CDD7E1"/>
<circle cx="774" cy="344" r="2" fill="#CDD7E1"/>
<circle cx="806" cy="344" r="2" fill="#CDD7E1"/>
<circle cx="838" cy="344" r="2" fill="#CDD7E1"/>
<circle cx="742" cy="376" r="2" fill="#CDD7E1"/>
<circle cx="774" cy="376" r="2" fill="#CDD7E1"/>
<circle cx="806" cy="376" r="2" fill="#CDD7E1"/>
<circle cx="838" cy="376" r="2" fill="#CDD7E1"/>
<circle cx="742" cy="408" r="2" fill="#CDD7E1"/>
<circle cx="774" cy="408" r="2" fill="#CDD7E1"/>
<circle cx="806" cy="408" r="2" fill="#CDD7E1"/>
<circle cx="838" cy="408" r="2" fill="#CDD7E1"/>
<circle cx="742" cy="440" r="2" fill="#CDD7E1"/>
<circle cx="774" cy="440" r="2" fill="#CDD7E1"/>
<circle cx="806" cy="440" r="2" fill="#CDD7E1"/>
<circle cx="838" cy="440" r="2" fill="#CDD7E1"/>
<circle cx="742" cy="472" r="2" fill="#CDD7E1"/>
<circle cx="774" cy="472" r="2" fill="#CDD7E1"/>
<circle cx="806" cy="472" r="2" fill="#CDD7E1"/>
<circle cx="838" cy="472" r="2" fill="#CDD7E1"/>
<circle cx="742" cy="504" r="2" fill="#CDD7E1"/>
<circle cx="774" cy="504" r="2" fill="#CDD7E1"/>
<circle cx="806" cy="504" r="2" fill="#CDD7E1"/>
<circle cx="838" cy="504" r="2" fill="#CDD7E1"/>
<circle cx="742" cy="536" r="2" fill="#CDD7E1"/>
<circle cx="774" cy="536" r="2" fill="#CDD7E1"/>
<circle cx="806" cy="536" r="2" fill="#CDD7E1"/>
<circle cx="838" cy="536" r="2" fill="#CDD7E1"/>
<circle cx="742" cy="568" r="2" fill="#CDD7E1"/>
<circle cx="774" cy="568" r="2" fill="#CDD7E1"/>
<circle cx="806" cy="568" r="2" fill="#CDD7E1"/>
<circle cx="838" cy="568" r="2" fill="#CDD7E1"/>
<circle cx="742" cy="600" r="2" fill="#CDD7E1"/>
<circle cx="774" cy="600" r="2" fill="#CDD7E1"/>
<circle cx="806" cy="600" r="2" fill="#CDD7E1"/>
<circle cx="838" cy="600" r="2" fill="#CDD7E1"/>
<circle cx="742" cy="632" r="2" fill="#CDD7E1"/>
<circle cx="774" cy="632" r="2" fill="#CDD7E1"/>
<circle cx="806" cy="632" r="2" fill="#CDD7E1"/>
<circle cx="838" cy="632" r="2" fill="#CDD7E1"/>
<circle cx="742" cy="664" r="2" fill="#CDD7E1"/>
<circle cx="774" cy="664" r="2" fill="#CDD7E1"/>
<circle cx="806" cy="664" r="2" fill="#CDD7E1"/>
<circle cx="838" cy="664" r="2" fill="#CDD7E1"/>
<circle cx="742" cy="696" r="2" fill="#CDD7E1"/>
<circle cx="774" cy="696" r="2" fill="#CDD7E1"/>
<circle cx="806" cy="696" r="2" fill="#CDD7E1"/>
<circle cx="838" cy="696" r="2" fill="#CDD7E1"/>
<circle cx="742" cy="728" r="2" fill="#CDD7E1"/>
<circle cx="774" cy="728" r="2" fill="#CDD7E1"/>
<circle cx="806" cy="728" r="2" fill="#CDD7E1"/>
<circle cx="838" cy="728" r="2" fill="#CDD7E1"/>
<circle cx="870" cy="312" r="2" fill="#CDD7E1"/>
<circle cx="902" cy="312" r="2" fill="#CDD7E1"/>
<circle cx="934" cy="312" r="2" fill="#CDD7E1"/>
<circle cx="966" cy="312" r="2" fill="#CDD7E1"/>
<circle cx="870" cy="344" r="2" fill="#CDD7E1"/>
<circle cx="902" cy="344" r="2" fill="#CDD7E1"/>
<circle cx="934" cy="344" r="2" fill="#CDD7E1"/>
<circle cx="966" cy="344" r="2" fill="#CDD7E1"/>
<circle cx="870" cy="376" r="2" fill="#CDD7E1"/>
<circle cx="902" cy="376" r="2" fill="#CDD7E1"/>
<circle cx="934" cy="376" r="2" fill="#CDD7E1"/>
<circle cx="966" cy="376" r="2" fill="#CDD7E1"/>
<circle cx="870" cy="408" r="2" fill="#CDD7E1"/>
<circle cx="902" cy="408" r="2" fill="#CDD7E1"/>
<circle cx="934" cy="408" r="2" fill="#CDD7E1"/>
<circle cx="966" cy="408" r="2" fill="#CDD7E1"/>
<circle cx="870" cy="440" r="2" fill="#CDD7E1"/>
<circle cx="902" cy="440" r="2" fill="#CDD7E1"/>
<circle cx="934" cy="440" r="2" fill="#CDD7E1"/>
<circle cx="966" cy="440" r="2" fill="#CDD7E1"/>
<circle cx="870" cy="472" r="2" fill="#CDD7E1"/>
<circle cx="902" cy="472" r="2" fill="#CDD7E1"/>
<circle cx="934" cy="472" r="2" fill="#CDD7E1"/>
<circle cx="966" cy="472" r="2" fill="#CDD7E1"/>
<circle cx="870" cy="504" r="2" fill="#CDD7E1"/>
<circle cx="902" cy="504" r="2" fill="#CDD7E1"/>
<circle cx="934" cy="504" r="2" fill="#CDD7E1"/>
<circle cx="966" cy="504" r="2" fill="#CDD7E1"/>
<circle cx="870" cy="536" r="2" fill="#CDD7E1"/>
<circle cx="902" cy="536" r="2" fill="#CDD7E1"/>
<circle cx="934" cy="536" r="2" fill="#CDD7E1"/>
<circle cx="966" cy="536" r="2" fill="#CDD7E1"/>
<circle cx="870" cy="568" r="2" fill="#CDD7E1"/>
<circle cx="902" cy="568" r="2" fill="#CDD7E1"/>
<circle cx="934" cy="568" r="2" fill="#CDD7E1"/>
<circle cx="966" cy="568" r="2" fill="#CDD7E1"/>
<circle cx="870" cy="600" r="2" fill="#CDD7E1"/>
<circle cx="902" cy="600" r="2" fill="#CDD7E1"/>
<circle cx="934" cy="600" r="2" fill="#CDD7E1"/>
<circle cx="966" cy="600" r="2" fill="#CDD7E1"/>
<circle cx="870" cy="632" r="2" fill="#CDD7E1"/>
<circle cx="902" cy="632" r="2" fill="#CDD7E1"/>
<circle cx="934" cy="632" r="2" fill="#CDD7E1"/>
<circle cx="966" cy="632" r="2" fill="#CDD7E1"/>
<circle cx="870" cy="664" r="2" fill="#CDD7E1"/>
<circle cx="902" cy="664" r="2" fill="#CDD7E1"/>
<circle cx="934" cy="664" r="2" fill="#CDD7E1"/>
<circle cx="966" cy="664" r="2" fill="#CDD7E1"/>
<circle cx="870" cy="696" r="2" fill="#CDD7E1"/>
<circle cx="902" cy="696" r="2" fill="#CDD7E1"/>
<circle cx="934" cy="696" r="2" fill="#CDD7E1"/>
<circle cx="966" cy="696" r="2" fill="#CDD7E1"/>
<circle cx="870" cy="728" r="2" fill="#CDD7E1"/>
<circle cx="902" cy="728" r="2" fill="#CDD7E1"/>
<circle cx="934" cy="728" r="2" fill="#CDD7E1"/>
<circle cx="966" cy="728" r="2" fill="#CDD7E1"/>
<circle cx="998" cy="312" r="2" fill="#CDD7E1"/>
<circle cx="1030" cy="312" r="2" fill="#CDD7E1"/>
<circle cx="998" cy="344" r="2" fill="#CDD7E1"/>
<circle cx="1030" cy="344" r="2" fill="#CDD7E1"/>
<circle cx="998" cy="376" r="2" fill="#CDD7E1"/>
<circle cx="1030" cy="376" r="2" fill="#CDD7E1"/>
<circle cx="998" cy="408" r="2" fill="#CDD7E1"/>
<circle cx="1030" cy="408" r="2" fill="#CDD7E1"/>
<circle cx="998" cy="440" r="2" fill="#CDD7E1"/>
<circle cx="1030" cy="440" r="2" fill="#CDD7E1"/>
<circle cx="998" cy="472" r="2" fill="#CDD7E1"/>
<circle cx="1030" cy="472" r="2" fill="#CDD7E1"/>
<circle cx="998" cy="504" r="2" fill="#CDD7E1"/>
<circle cx="1030" cy="504" r="2" fill="#CDD7E1"/>
<circle cx="998" cy="536" r="2" fill="#CDD7E1"/>
<circle cx="1030" cy="536" r="2" fill="#CDD7E1"/>
<circle cx="998" cy="568" r="2" fill="#CDD7E1"/>
<circle cx="1030" cy="568" r="2" fill="#CDD7E1"/>
<circle cx="998" cy="600" r="2" fill="#CDD7E1"/>
<circle cx="1030" cy="600" r="2" fill="#CDD7E1"/>
<circle cx="998" cy="632" r="2" fill="#CDD7E1"/>
<circle cx="1030" cy="632" r="2" fill="#CDD7E1"/>
<circle cx="998" cy="664" r="2" fill="#CDD7E1"/>
<circle cx="1030" cy="664" r="2" fill="#CDD7E1"/>
<circle cx="998" cy="696" r="2" fill="#CDD7E1"/>
<circle cx="1030" cy="696" r="2" fill="#CDD7E1"/>
<circle cx="998" cy="728" r="2" fill="#CDD7E1"/>
<circle cx="1030" cy="728" r="2" fill="#CDD7E1"/>
</g>
<defs>
<radialGradient id="paint0_radial_1899_725" cx="0" cy="0" r="1" gradientUnits="userSpaceOnUse" gradientTransform="translate(714.14 511.317) rotate(-90) scale(214.317 331.86)">
<stop stop-color="white"/>
<stop offset="0.501837" stop-color="white" stop-opacity="0.8"/>
<stop offset="1" stop-color="white" stop-opacity="0"/>
</radialGradient>
</defs>
</svg>
