<svg width="133" height="20" viewBox="0 0 133 20" fill="none" xmlns="http://www.w3.org/2000/svg">
<path d="M125.828 15.7725V3.96674H127.565V15.7725H125.828Z" fill="#070707"/>
<path d="M120.191 16.0086C119.359 16.0086 118.616 15.84 117.964 15.5027C117.323 15.1541 116.818 14.6594 116.446 14.0185C116.075 13.3776 115.89 12.6187 115.89 11.7417V11.4887C115.89 10.6117 116.075 9.85839 116.446 9.22875C116.818 8.58786 117.323 8.09315 117.964 7.7446C118.616 7.39605 119.359 7.22177 120.191 7.22177C121.023 7.22177 121.765 7.39605 122.417 7.7446C123.069 8.09315 123.581 8.58786 123.952 9.22875C124.323 9.85839 124.508 10.6117 124.508 11.4887V11.7417C124.508 12.6187 124.323 13.3776 123.952 14.0185C123.581 14.6594 123.069 15.1541 122.417 15.5027C121.765 15.84 121.023 16.0086 120.191 16.0086ZM120.191 14.457C120.955 14.457 121.574 14.2153 122.046 13.7318C122.529 13.2371 122.771 12.5568 122.771 11.6911V11.5393C122.771 10.6735 122.535 9.99893 122.063 9.51546C121.59 9.02074 120.966 8.77338 120.191 8.77338C119.437 8.77338 118.819 9.02074 118.335 9.51546C117.863 9.99893 117.627 10.6735 117.627 11.5393V11.6911C117.627 12.5568 117.863 13.2371 118.335 13.7318C118.819 14.2153 119.437 14.457 120.191 14.457Z" fill="#070707"/>
<path d="M111.02 16.0086C110.221 16.0086 109.496 15.84 108.844 15.5027C108.203 15.1653 107.691 14.6762 107.309 14.0354C106.938 13.3945 106.753 12.6243 106.753 11.7248V11.5056C106.753 10.6061 106.938 9.84152 107.309 9.21188C107.691 8.571 108.203 8.0819 108.844 7.7446C109.496 7.39605 110.221 7.22177 111.02 7.22177C111.818 7.22177 112.498 7.36794 113.06 7.66027C113.622 7.9526 114.072 8.34051 114.41 8.82398C114.758 9.30745 114.983 9.84152 115.084 10.4262L113.398 10.7804C113.341 10.4093 113.223 10.072 113.043 9.76844C112.864 9.46486 112.611 9.22312 112.285 9.04323C111.958 8.86333 111.548 8.77338 111.053 8.77338C110.57 8.77338 110.131 8.88582 109.738 9.11069C109.356 9.32432 109.052 9.63914 108.827 10.0551C108.602 10.4599 108.49 10.9546 108.49 11.5393V11.6911C108.49 12.2758 108.602 12.7761 108.827 13.1921C109.052 13.6081 109.356 13.9229 109.738 14.1366C110.131 14.3502 110.57 14.457 111.053 14.457C111.784 14.457 112.341 14.2715 112.723 13.9004C113.105 13.5182 113.347 13.0347 113.448 12.45L115.135 12.8379C115 13.4113 114.758 13.9398 114.41 14.4233C114.072 14.9067 113.622 15.2946 113.06 15.587C112.498 15.8681 111.818 16.0086 111.02 16.0086Z" fill="#070707"/>
<path d="M101.52 16.0086C100.688 16.0086 99.9461 15.84 99.2939 15.5027C98.653 15.1541 98.1471 14.6594 97.776 14.0185C97.405 13.3776 97.2195 12.6187 97.2195 11.7417V11.4887C97.2195 10.6117 97.405 9.85839 97.776 9.22875C98.1471 8.58786 98.653 8.09315 99.2939 7.7446C99.9461 7.39605 100.688 7.22177 101.52 7.22177C102.352 7.22177 103.094 7.39605 103.746 7.7446C104.399 8.09315 104.91 8.58786 105.281 9.22875C105.652 9.85839 105.838 10.6117 105.838 11.4887V11.7417C105.838 12.6187 105.652 13.3776 105.281 14.0185C104.91 14.6594 104.399 15.1541 103.746 15.5027C103.094 15.84 102.352 16.0086 101.52 16.0086ZM101.52 14.457C102.285 14.457 102.903 14.2153 103.375 13.7318C103.859 13.2371 104.101 12.5568 104.101 11.6911V11.5393C104.101 10.6735 103.864 9.99893 103.392 9.51546C102.92 9.02074 102.296 8.77338 101.52 8.77338C100.767 8.77338 100.148 9.02074 99.665 9.51546C99.1927 9.99893 98.9566 10.6735 98.9566 11.5393V11.6911C98.9566 12.5568 99.1927 13.2371 99.665 13.7318C100.148 14.2153 100.767 14.457 101.52 14.457Z" fill="#070707"/>
<path d="M94.1597 15.7725C93.6537 15.7725 93.249 15.6207 92.9454 15.3171C92.6531 15.0136 92.5069 14.6088 92.5069 14.1028V8.92517H90.2132V7.45788H92.5069V4.70883H94.244V7.45788H96.7232V8.92517H94.244V13.7992C94.244 14.1366 94.4014 14.3052 94.7163 14.3052H96.4534V15.7725H94.1597Z" fill="#070707"/>
<path d="M85.7154 16.0086C84.8834 16.0086 84.1413 15.84 83.4892 15.5027C82.8483 15.1541 82.3423 14.6594 81.9713 14.0185C81.6002 13.3776 81.4147 12.6187 81.4147 11.7417V11.4887C81.4147 10.6117 81.6002 9.85839 81.9713 9.22875C82.3423 8.58786 82.8483 8.09315 83.4892 7.7446C84.1413 7.39605 84.8834 7.22177 85.7154 7.22177C86.5474 7.22177 87.2895 7.39605 87.9416 7.7446C88.5937 8.09315 89.1053 8.58786 89.4763 9.22875C89.8474 9.85839 90.0329 10.6117 90.0329 11.4887V11.7417C90.0329 12.6187 89.8474 13.3776 89.4763 14.0185C89.1053 14.6594 88.5937 15.1541 87.9416 15.5027C87.2895 15.84 86.5474 16.0086 85.7154 16.0086ZM85.7154 14.457C86.4799 14.457 87.0983 14.2153 87.5706 13.7318C88.054 13.2371 88.2958 12.5568 88.2958 11.6911V11.5393C88.2958 10.6735 88.0597 9.99893 87.5874 9.51546C87.1152 9.02074 86.4912 8.77338 85.7154 8.77338C84.9621 8.77338 84.3437 9.02074 83.8602 9.51546C83.388 9.99893 83.1518 10.6735 83.1518 11.5393V11.6911C83.1518 12.5568 83.388 13.2371 83.8602 13.7318C84.3437 14.2153 84.9621 14.457 85.7154 14.457Z" fill="#070707"/>
<path d="M76.4371 15.7725V7.45785H78.1405V8.43604H78.4103C78.5452 8.08749 78.7589 7.83451 79.0512 7.6771C79.3548 7.50845 79.7258 7.42412 80.1643 7.42412H81.1594V8.9926H80.0968C79.5347 8.9926 79.0737 9.15001 78.7139 9.46483C78.3541 9.7684 78.1742 10.2406 78.1742 10.8815V15.7725H76.4371Z" fill="#070707"/>
<path d="M66.4762 19.1456V7.45789H68.1796V8.65532H68.4494C68.6631 8.28429 68.9835 7.9526 69.4108 7.66027C69.8493 7.36794 70.4733 7.22177 71.2828 7.22177C71.9799 7.22177 72.6152 7.39042 73.1886 7.72773C73.7733 8.06504 74.2399 8.55413 74.5884 9.19502C74.9482 9.82466 75.1281 10.5892 75.1281 11.4887V11.7417C75.1281 12.6412 74.9538 13.4113 74.6053 14.0522C74.2567 14.6819 73.7901 15.1653 73.2055 15.5027C72.6208 15.84 71.9799 16.0086 71.2828 16.0086C70.7431 16.0086 70.2878 15.9411 69.9167 15.8062C69.5457 15.6713 69.2477 15.5027 69.0229 15.3003C68.798 15.0866 68.6181 14.8674 68.4832 14.6425H68.2133V19.1456H66.4762ZM70.7769 14.4907C71.5414 14.4907 72.1654 14.249 72.6489 13.7655C73.1324 13.282 73.3741 12.5906 73.3741 11.6911V11.5393C73.3741 10.6511 73.1268 9.9652 72.632 9.48173C72.1486 8.99825 71.5302 8.75652 70.7769 8.75652C70.0348 8.75652 69.4164 8.99825 68.9217 9.48173C68.4382 9.9652 68.1965 10.6511 68.1965 11.5393V11.6911C68.1965 12.5906 68.4382 13.282 68.9217 13.7655C69.4164 14.249 70.0348 14.4907 70.7769 14.4907Z" fill="#070707"/>
<path d="M59.0909 15.7725C58.5849 15.7725 58.1802 15.6207 57.8766 15.3171C57.5843 15.0136 57.4381 14.6088 57.4381 14.1028V8.92517H55.1444V7.45788H57.4381V4.70883H59.1752V7.45788H61.6544V8.92517H59.1752V13.7992C59.1752 14.1366 59.3326 14.3052 59.6475 14.3052H61.3846V15.7725H59.0909Z" fill="#070707"/>
<path d="M46.4998 15.7725V7.4579H48.2032V8.70594H48.4731C48.6305 8.36863 48.9116 8.05381 49.3163 7.76148C49.7211 7.46915 50.3226 7.32298 51.1209 7.32298C51.7506 7.32298 52.3071 7.46352 52.7906 7.74461C53.2853 8.0257 53.6732 8.42485 53.9543 8.94205C54.2354 9.44801 54.3759 10.0608 54.3759 10.7804V15.7725H52.6388V10.9153C52.6388 10.1957 52.4589 9.66726 52.0991 9.32996C51.7393 8.98141 51.2446 8.80713 50.615 8.80713C49.8954 8.80713 49.3163 9.04324 48.8778 9.51547C48.4506 9.9877 48.237 10.6736 48.237 11.573V15.7725H46.4998Z" fill="#070707"/>
<path d="M41.137 16.0086C40.2937 16.0086 39.5573 15.8343 38.9276 15.4858C38.298 15.126 37.8033 14.6257 37.4435 13.9848C37.0949 13.3326 36.9207 12.5793 36.9207 11.7248V11.5224C36.9207 10.6567 37.0949 9.90336 37.4435 9.26248C37.792 8.61035 38.2755 8.11001 38.8939 7.76146C39.5235 7.40167 40.2487 7.22177 41.0695 7.22177C41.8678 7.22177 42.5649 7.40167 43.1608 7.76146C43.768 8.11001 44.2402 8.59911 44.5775 9.22875C44.9148 9.85839 45.0835 10.5948 45.0835 11.4381V12.0959H38.6915C38.714 12.8267 38.9557 13.4113 39.4167 13.8498C39.889 14.2771 40.4736 14.4907 41.1707 14.4907C41.8228 14.4907 42.3119 14.3446 42.638 14.0522C42.9753 13.7599 43.2339 13.4226 43.4138 13.0403L44.8474 13.7824C44.69 14.0972 44.4595 14.4289 44.1559 14.7774C43.8636 15.126 43.4756 15.4183 42.9922 15.6544C42.5087 15.8906 41.8903 16.0086 41.137 16.0086ZM38.7084 10.7635H43.3126C43.2676 10.1339 43.0428 9.64476 42.638 9.29621C42.2332 8.93641 41.7048 8.75652 41.0527 8.75652C40.4005 8.75652 39.8665 8.93641 39.4505 9.29621C39.0457 9.64476 38.7983 10.1339 38.7084 10.7635Z" fill="#070707"/>
<path d="M33.685 15.7725V3.96674H35.4222V15.7725H33.685Z" fill="#070707"/>
<path d="M27.2062 16.0086C26.6102 16.0086 26.0762 15.9074 25.6039 15.705C25.143 15.5027 24.7719 15.2047 24.4908 14.8112C24.221 14.4176 24.0861 13.9398 24.0861 13.3776C24.0861 12.8042 24.221 12.332 24.4908 11.9609C24.7719 11.5786 25.1486 11.2919 25.6208 11.1008C26.1043 10.9097 26.6496 10.8141 27.2567 10.8141H29.7865V10.2744C29.7865 9.79092 29.6404 9.40302 29.348 9.11069C29.0557 8.81836 28.606 8.67219 27.9988 8.67219C27.4029 8.67219 26.9475 8.81273 26.6327 9.09382C26.3179 9.37491 26.1099 9.74033 26.0087 10.1901L24.3896 9.66724C24.5246 9.2175 24.7382 8.81274 25.0305 8.45294C25.3341 8.0819 25.7332 7.78395 26.228 7.55908C26.7227 7.33421 27.3186 7.22177 28.0157 7.22177C29.0951 7.22177 29.944 7.49724 30.5624 8.04817C31.1807 8.59911 31.4899 9.38053 31.4899 10.3925V13.8161C31.4899 14.1534 31.6474 14.3221 31.9622 14.3221H32.6705V15.7725H31.3719C30.9784 15.7725 30.6579 15.6713 30.4106 15.4689C30.1632 15.2665 30.0395 14.9911 30.0395 14.6425V14.5919H29.7865C29.6966 14.7606 29.5617 14.9573 29.3818 15.1822C29.2019 15.4071 28.9377 15.6038 28.5891 15.7725C28.2406 15.9299 27.7796 16.0086 27.2062 16.0086ZM27.4591 14.5751C28.1562 14.5751 28.7184 14.3783 29.1457 13.9848C29.5729 13.58 29.7865 13.0291 29.7865 12.332V12.1633H27.3579C26.897 12.1633 26.5259 12.2645 26.2448 12.4669C25.9637 12.658 25.8232 12.9447 25.8232 13.327C25.8232 13.7093 25.9694 14.0129 26.2617 14.2378C26.554 14.4626 26.9532 14.5751 27.4591 14.5751Z" fill="#070707"/>
<path d="M20.7126 15.7725C20.2066 15.7725 19.8019 15.6207 19.4983 15.3171C19.206 15.0136 19.0598 14.6088 19.0598 14.1028V8.92517H16.7661V7.45788H19.0598V4.70883H20.7969V7.45788H23.2761V8.92517H20.7969V13.7992C20.7969 14.1366 20.9543 14.3052 21.2692 14.3052H23.0063V15.7725H20.7126Z" fill="#070707"/>
<path d="M2.18806 6.96379C2.49252 7.26736 2.89846 7.41914 3.40589 7.41914L8.5956 7.41914L8.01111 5.74954H3.87949C3.56375 5.74954 3.40589 5.5809 3.40589 5.24361L3.40589 1.13612L1.74829 0.572113L1.74829 5.74954C1.74829 6.25548 1.89488 6.66023 2.18806 6.96379Z" fill="#070707"/>
<path d="M2.18806 15.3111C2.49252 15.6147 2.89846 15.7665 3.40589 15.7665H8.5956L8.01111 14.0969H3.87949C3.56375 14.0969 3.40589 13.9282 3.40589 13.5909L3.40589 9.48346L1.74829 8.91946L1.74829 14.0969C1.74829 14.6028 1.89488 15.0076 2.18806 15.3111Z" fill="#070707"/>
</svg>
